<?xml version="1.0" encoding="utf-8"?>
<!-- Uploaded to: SVG Repo, www.svgrepo.com, Generator: SVG Repo Mixer Tools -->
<svg width="800px" height="800px" viewBox="0 0 1024 1024" class="icon"  version="1.1" xmlns="http://www.w3.org/2000/svg"><path d="M228.1 217.7h570.1V713H228.1z" fill="#D5D9CF" /><path d="M803.6 718.4H222.7v-506h580.9v506z m-570.2-10.7h559.4V223.1H233.4v484.6z" fill="#333336" /><path d="M765.6 182.7H258.4c-39.1 0-71 32-71 71v432.5c0 39.1 32 71 71 71h507.3c39.1 0 71-32 71-71V253.7c0-39.1-32-71-71.1-71zM770 656c0 19-15.5 34.5-34.5 34.5H288.6c-19 0-34.5-15.5-34.5-34.5V283.9c0-19 15.5-34.5 34.5-34.5h446.9c19 0 34.5 15.5 34.5 34.5V656z" fill="#68A240" /><path d="M765.6 762.6H258.4c-42.1 0-76.4-34.3-76.4-76.4V253.7c0-42.1 34.3-76.4 76.4-76.4h507.3c42.1 0 76.4 34.3 76.4 76.4v432.5c-0.1 42.1-34.3 76.4-76.5 76.4zM258.4 188c-36.2 0-65.7 29.5-65.7 65.7v432.5c0 36.2 29.5 65.7 65.7 65.7h507.3c36.2 0 65.7-29.5 65.7-65.7V253.7c0-36.2-29.5-65.7-65.7-65.7H258.4z m477 507.9H288.6c-22 0-39.9-17.9-39.9-39.9V283.9c0-22 17.9-39.9 39.9-39.9h446.9c22 0 39.9 17.9 39.9 39.9V656c-0.1 22-18 39.9-40 39.9zM288.6 254.8c-16.1 0-29.1 13.1-29.1 29.1V656c0 16.1 13.1 29.1 29.1 29.1h446.9c16.1 0 29.1-13.1 29.1-29.1V283.9c0-16.1-13.1-29.1-29.1-29.1H288.6z" fill="#333336" /><path d="M512 309.1c-3 0-5.4-2.4-5.4-5.4v-54.3c0-3 2.4-5.4 5.4-5.4 3 0 5.4 2.4 5.4 5.4v54.3c0 3-2.4 5.4-5.4 5.4zM512 695.4c-3 0-5.4-2.4-5.4-5.4v-54.3c0-3 2.4-5.4 5.4-5.4 3 0 5.4 2.4 5.4 5.4V690c0 3-2.4 5.4-5.4 5.4z" fill="#333336" /><path d="M255.9 469.9h54.3" fill="#68A240" /><path d="M310.2 475.3h-54.3c-3 0-5.4-2.4-5.4-5.4 0-3 2.4-5.4 5.4-5.4h54.3c3 0 5.4 2.4 5.4 5.4-0.1 3-2.5 5.4-5.4 5.4z" fill="#333336" /><path d="M715.7 469.9H770" fill="#68A240" /><path d="M770 475.3h-54.3c-3 0-5.4-2.4-5.4-5.4 0-3 2.4-5.4 5.4-5.4H770c3 0 5.4 2.4 5.4 5.4-0.1 3-2.5 5.4-5.4 5.4z" fill="#333336" /><path d="M512 469.9m-65.5 0a65.5 65.5 0 1 0 131 0 65.5 65.5 0 1 0-131 0Z" fill="#FFD632" /><path d="M512 540.8c-39.1 0-70.8-31.8-70.8-70.8s31.8-70.8 70.8-70.8 70.8 31.8 70.8 70.8-31.7 70.8-70.8 70.8z m0-131c-33.1 0-60.1 27-60.1 60.1s27 60.1 60.1 60.1 60.1-27 60.1-60.1-27-60.1-60.1-60.1z" fill="#333336" /><path d="M512 469.9m-24.3 0a24.3 24.3 0 1 0 48.6 0 24.3 24.3 0 1 0-48.6 0Z" fill="#D5D9CF" /><path d="M512 499.6c-16.3 0-29.6-13.3-29.6-29.6s13.3-29.6 29.6-29.6 29.6 13.3 29.6 29.6-13.3 29.6-29.6 29.6z m0-48.6c-10.4 0-18.9 8.5-18.9 18.9s8.5 18.9 18.9 18.9c10.4 0 18.9-8.5 18.9-18.9S522.4 451 512 451z" fill="#333336" /><path d="M663.3 475.3H538.8c-3 0-5.4-2.4-5.4-5.4 0-3 2.4-5.4 5.4-5.4h124.5c3 0 5.4 2.4 5.4 5.4-0.1 3-2.5 5.4-5.4 5.4z" fill="#333336" /><path d="M487.7 445.7l-143.6-99.8" fill="#D5D9CF" /><path d="M487.7 451c-1.1 0-2.1-0.3-3.1-1L341 350.2c-2.4-1.7-3-5-1.3-7.5 1.7-2.4 5-3 7.5-1.3l143.6 99.8c2.4 1.7 3 5 1.3 7.5-1 1.5-2.7 2.3-4.4 2.3z" fill="#333336" /><path d="M724.9 841.3H300.8c-14.5 0-24.9-13.9-20.8-27.8l16.7-56.3H729l16.7 56.3c4.1 13.9-6.3 27.8-20.8 27.8z" fill="#FFD632" /><path d="M724.9 846.7H300.8c-8.6 0-16.5-4-21.6-10.9-5.1-6.9-6.7-15.6-4.3-23.8l17.8-60.1H733l17.8 60.1c2.4 8.3 0.9 16.9-4.3 23.8-5.1 6.9-13 10.9-21.6 10.9z m-424.2-84.1L285.2 815c-1.5 5-0.5 10.2 2.6 14.4 3.1 4.2 7.9 6.5 13 6.5h424.1c5.2 0 9.9-2.4 13.1-6.5 3.1-4.2 4-9.4 2.6-14.4L725 762.6H300.7z" fill="#333336" /></svg>